<svg id="Capa_1" data-name="Capa 1" xmlns="http://www.w3.org/2000/svg" viewBox="0 0 512 512"><defs><style>.cls-1{opacity:0.75;}</style></defs><g class="cls-1"><path d="M537,485.66l-35.15-102.3A250.13,250.13,0,1,0,277.41,522.75h.4A251.12,251.12,0,0,0,388.4,496.84L490.69,532a36.84,36.84,0,0,0,12,2A36.5,36.5,0,0,0,537,485.66Zm-30.16,16.16a5.85,5.85,0,0,1-6.3,1.46L392.16,466a15.14,15.14,0,0,0-12,.93,220.31,220.31,0,0,1-102.37,25.42C158.21,492.58,59.32,395.48,57.42,276A220,220,0,0,1,281,52.39c119.53,1.89,216.62,100.73,216.44,220.33A220.57,220.57,0,0,1,472,375.1a15.2,15.2,0,0,0-.94,12l37.25,108.39A5.86,5.86,0,0,1,506.86,501.82Z" transform="translate(-27.04 -22)"/></g><g class="cls-1"><path d="M275,384.75c-7.94,0-15.55,7-15.18,15.18S266.44,415.1,275,415.1c7.93,0,15.54-7,15.17-15.17S283.45,384.75,275,384.75Z" transform="translate(-27.04 -22)"/></g><g class="cls-1"><path d="M275,149.67a75.61,75.61,0,0,0-75.52,75.52,15.18,15.18,0,1,0,30.36,0A45.16,45.16,0,1,1,275,270.35a15.17,15.17,0,0,0-15.18,15.18v61.9a15.18,15.18,0,1,0,30.35,0V299.17A75.52,75.52,0,0,0,275,149.67Z" transform="translate(-27.04 -22)"/></g></svg>